<?xml version="1.0" encoding="UTF-8" standalone="no"?>
<svg
   width="500"
   height="500"
   version="1.1"
   viewBox="0 0 132.29167 132.29167"
   xml:space="preserve"
   id="svg6"
   sodipodi:docname="icon.svg"
   inkscape:version="1.4.3 (0d15f75, 2025-12-25)"
   xmlns:inkscape="http://www.inkscape.org/namespaces/inkscape"
   xmlns:sodipodi="http://sodipodi.sourceforge.net/DTD/sodipodi-0.dtd"
   xmlns="http://www.w3.org/2000/svg"
   xmlns:svg="http://www.w3.org/2000/svg"><defs
     id="defs6" /><sodipodi:namedview
     id="namedview6"
     pagecolor="#ffffff"
     bordercolor="#666666"
     borderopacity="1.0"
     inkscape:showpageshadow="2"
     inkscape:pageopacity="0.0"
     inkscape:pagecheckerboard="0"
     inkscape:deskcolor="#d1d1d1"
     inkscape:document-units="mm"
     inkscape:zoom="1"
     inkscape:cx="179"
     inkscape:cy="388.49999"
     inkscape:window-width="1920"
     inkscape:window-height="1009"
     inkscape:window-x="-8"
     inkscape:window-y="-8"
     inkscape:window-maximized="1"
     inkscape:current-layer="svg6"
     showguides="false" /><g
     id="g19"
     transform="matrix(0.58884997,0,0,0.58884997,-7.6052124,-7.356684)"
     inkscape:label="tantabus"
     style="display:none"><path
       id="circle4"
       style="fill:#b189d7;stroke-width:1.0041"
       d="m 43.466348,113.64503 a 112.33,112.33 0 0 1 -2.816322,-24.996115 112.33,112.33 0 0 1 0.268142,-7.16744 81.915001,81.915001 0 0 0 80.531792,67.232315 81.915001,81.915001 0 0 0 81.91485,-81.914598 81.915001,81.915001 0 0 0 -81.91473,-81.915346 81.915001,81.915001 0 0 0 -14.38301,1.326615 112.33,112.33 0 0 1 45.91286,-9.891635 A 112.33,112.33 0 0 1 265.31002,88.648731 112.33,112.33 0 0 1 152.98012,200.97882 112.33,112.33 0 0 1 43.466348,113.64503 Z"
       transform="matrix(0.25882,0.96593,0.96593,-0.25882,0,0)" /><path
       d="M 120.78,137.49 C 107.594,159.947 81.027,156.187 74.165,127.388 70.8056,113.287 92.068,94.342 87.915,75.779 84.9889,62.7 104.035,32.347 103.03,35.052 c -5.9218,15.937 -6.5312,30.238 1.25,42.264 16.946,26.186 24.595,46.387 16.499,60.175 z"
       style="fill:#b189d7;stroke-width:2.0644;stroke-linecap:round;stroke-linejoin:round"
       id="path8" /></g><g
     transform="matrix(1.048236,0,0,1.048236,-0.23527111,-1.5720411)"
     id="g4"
     inkscape:label="derpibooru"
     style="display:none"><path
       d="m 103.79,1.5 c 2.226,55.884 -2.592,66.082 -26.774,81.11 -10.46,6.495 -24.44,-7.2571 -36.56,-5.1501 -14.529,2.53 -33.119,12.655 -39.169,20.603 l 0.00607,-0.0012 c 56.82,1.164 44.414,29.924 80.7,29.64 21.39,-0.17 35.89,-18.483 38.62,-27.615 10.456,-34.942 3.1379,-65.073 -16.823,-98.587 z m 11.375,57.714 c -1.6412,10.692 -0.54281,11.478 6.66,16.938 -8.649,-2.0114 -10.977,0.7243 -14.702,8.2179 1.5999,-8.243 0.4741,-11.62 -5.8526,-15.099 8.3149,0.88078 9.4155,0.05081 13.895,-10.057 z M 80.281,92.906 c -3.7887,11.898 -1.8578,13.462 6.4355,18.092 -12.032,-2.4927 -11.44,1.5364 -16.965,7.6122 2.9076,-9.5873 1.2336,-12.084 -5.6426,-16.122 5.6959,0.20558 11.418,1.8392 16.172,-9.5819 z"
       style="fill:#73d6ed"
       id="path1-0" /><path
       d="m 69.863,33.123 -42.793,78.941 5.4648,2.9629 42.791,-78.943 z"
       style="color:#000000;fill:#73d6ed;-inkscape-stroke:none"
       id="path2-9" /><g
       style="fill:#73d6ed"
       id="g3"><path
         d="m 64.894,48.218 7.18,-13.796"
         style="color:#000000;fill:#73d6ed;stroke-width:6.557;-inkscape-stroke:none"
         id="path3-4" /></g><path
       d="m 89.844,3.2499 -14.504,13.697 -16.245,-10.04 7.31,17.535 -16.03,14.152 21.282,-2.9352 8.782,19.4 2.8299,-22.61 19.26,-1.614 -17.67,-8.8749 z m -7.235,13.028 -1.5585,8.3965 7.2681,3.9461 -8.1864,1.1558 -1.6952,9.6819 -3.8619,-8.8428 -9.5827,1.4895 7.3746,-6.5192 -3.4781,-7.6725 7.4099,4.1481 z"
       style="fill:#73d6ed"
       id="path4-8" /></g><g
     transform="matrix(0.13355808,0,0,0.13355808,-0.92543932,0.1095915)"
     id="g6"
     inkscape:label="furbooru"
     style="display:inline"><path
       d="m 396.42,189.81 c -51.874,-0.0769 -99.544,21.731 -131.29,68.784 3.6141,-17.709 12.731,-35.245 20.313,-51.85 -64.951,23.01 -110.98,58.779 -153.95,130.96 31.861,78.452 47.007,130.73 32.991,180.63 -12.789,45.531 -57.874,81.129 -120.66,54.031 11.733,79.157 138.9,169.44 265.13,95.148 -15.402,34.788 -33.651,44.104 -58.67,59.609 109.87,18.28 240.46,-16.733 327.04,-89.364 80.473,-67.509 145.76,-176.62 150.49,-271.1 -16.925,5.2436 -48.396,10.423 -61.314,8.6977 -4.9416,-13.958 -6.5445,-47.664 -6.6378,-65.502 -78.741,1.4559 -134.21,-82.398 -225.29,-56.079 24.483,-19.73 56.853,-19.667 84.992,-25.658 -39.916,-24.957 -82.805,-38.256 -123.15,-38.315 z m 46.019,201.23 c 33.445,0.29408 70.846,13.949 108.14,44.486 -71.827,-12.193 -167.68,9.8684 -228.78,100.49 -3.4843,-86.066 49.678,-145.6 120.65,-144.98 z"
       style="fill:#9a91d9"
       id="path1"
       inkscape:label="head" /><path
       d="m 70.559,99.836 c -11.606,103.12 31.76,196.05 73.743,312.81 47.028,130.79 -54.846,190.58 -100.97,125.58 C -2.791,473.221 -16.34,258.006 70.558,99.836 Z"
       style="fill:#9a91d9"
       id="path2"
       inkscape:label="rightear" /><path
       d="m 126.15,320.07 c 0,0 -84.457,-177.47 -13.898,-310.03 12.18,95.304 37.741,170.41 85.526,228.25 -34.102,31.125 -51.147,53.357 -71.628,81.784 z"
       style="fill:#9a91d9"
       id="path3"
       inkscape:label="leftear" /><path
       d="m 54.523,683.55 c 36.454,189.97 245.77,300.87 372.04,295.07 -11.047,-9.7005 -22.094,-18.617 -33.141,-31.003 95.291,43.85 187.43,17.122 251.23,-12.829 -16.164,-4.6041 -32.272,-9.3803 -47.039,-18.174 21.351,-4.409 43.671,-15.588 59.868,-33.141 -52.566,-1.4772 -102.82,-10.573 -151.86,-54.928 57.575,-28.86 90.002,-66.925 102.7,-97.767 -13.158,6.0202 -27.475,9.3163 -40.636,10.507 12.007,-23.538 20.064,-48.835 23.52,-78.043 -232.6,178.14 -441.6,75.628 -536.68,20.312 z"
       style="fill:#9a91d9"
       id="path4"
       inkscape:label="tail" /><path
       d="m 611.51,653.89 c -3.4653,21.491 -9.3328,46.627 -17.472,65.294 25.751,-12.728 37.33,-30.294 47.406,-48.456 0,0 -10.691,113.32 -106.91,158.22 0,0 57.784,50.56 163.62,32.385 -12.482,20.32 -26.396,37.375 -64.404,55.584 57.955,10.976 153.12,-24.053 185.6,-80.951 -28.742,9.1492 -48.987,9.8028 -69.933,11.156 160.72,-63.788 92.562,-249.91 248.03,-342.1 -61.514,-30.693 -156.71,-52.064 -253.37,42.763 9.4346,-13.824 22.374,-34.745 43.832,-56.661 -72.65,21.206 -114.21,112.97 -176.4,162.77 z"
       style="fill:#9a91d9"
       id="path5"
       inkscape:label="tailend" /><path
       d="m 676.96,308.22 c -2.2133,13.699 -3.9692,34.942 1.8899,51.493 15.962,2.1315 36.687,-1.0078 49.243,-8.4218 -0.26672,-23.09 -4.5591,-41.009 -10.829,-57.596 -12.902,6.3961 -22.273,10.895 -40.304,14.525 z"
       style="fill:#9a91d9"
       id="path6"
       inkscape:label="nose" /></g><g
     id="g18"
     inkscape:label="badge"
     style="display:inline"
     transform="matrix(0.9615385,0,0,0.9615385,66.145836,5.0881347)"><rect
       style="opacity:1;fill:#1b3c21;fill-opacity:1;stroke:none;stroke-width:1.42664;stroke-linecap:round;stroke-linejoin:round"
       id="rect6"
       width="68.791664"
       height="44.450001"
       x="-2.5431316e-06"
       y="87.841667"
       ry="5.2916665"
       inkscape:label="bg" /><text
       xml:space="preserve"
       style="font-size:34.0036px;line-height:0.85;font-family:sans-serif;text-align:center;text-anchor:middle;fill:#4aa158;fill-opacity:1;stroke-width:0.261214"
       x="34.024727"
       y="128.18593"
       id="text11"
       transform="scale(1.0109068,0.98921086)"
       inkscape:label="text"><tspan
         style="font-style:normal;font-variant:normal;font-weight:normal;font-stretch:normal;font-size:34.0036px;line-height:0.85;font-family:Roundfeather;-inkscape-font-specification:Roundfeather;fill:#4aa158;fill-opacity:1;stroke-width:0.261214"
         x="34.024727"
         y="128.18593"
         id="tspan12"
         sodipodi:role="line">PTA</tspan></text></g></svg>
